<svg xmlns="http://www.w3.org/2000/svg" width="17" height="17" viewBox="0 0 17 17" fill="none">
    <path d="M12.2287 10.843C13.197 9.52169 13.6307 7.88349 13.443 6.25615C13.2554 4.62881 12.4601 3.13234 11.2165 2.06613C9.97285 0.999923 8.37249 0.442605 6.73557 0.505679C5.09866 0.568752 3.54592 1.24756 2.38801 2.40631C1.23009 3.56505 0.552388 5.11828 0.490486 6.75524C0.428585 8.39219 0.987047 9.99216 2.05415 11.235C3.12124 12.4779 4.61828 13.2721 6.24576 13.4586C7.87323 13.6451 9.51112 13.2102 10.8317 12.241H10.8307C10.8607 12.281 10.8927 12.319 10.9287 12.356L14.7787 16.206C14.9662 16.3936 15.2206 16.4991 15.4859 16.4992C15.7512 16.4993 16.0056 16.394 16.1932 16.2065C16.3809 16.019 16.4863 15.7646 16.4864 15.4994C16.4865 15.2341 16.3812 14.9796 16.1937 14.792L12.3437 10.942C12.308 10.9058 12.2695 10.8724 12.2287 10.842V10.843ZM12.4867 6.999C12.4867 7.72127 12.3445 8.43647 12.0681 9.10376C11.7917 9.77105 11.3865 10.3774 10.8758 10.8881C10.3651 11.3988 9.75879 11.8039 9.0915 12.0803C8.42421 12.3567 7.70901 12.499 6.98674 12.499C6.26447 12.499 5.54927 12.3567 4.88198 12.0803C4.21469 11.8039 3.60837 11.3988 3.09765 10.8881C2.58693 10.3774 2.1818 9.77105 1.9054 9.10376C1.629 8.43647 1.48674 7.72127 1.48674 6.999C1.48674 5.54031 2.0662 4.14136 3.09765 3.10991C4.1291 2.07846 5.52805 1.499 6.98674 1.499C8.44543 1.499 9.84437 2.07846 10.8758 3.10991C11.9073 4.14136 12.4867 5.54031 12.4867 6.999Z" fill="#8A8A8A"/>
</svg>
